<?xml version="1.0" encoding="UTF-8" standalone="no"?>
<svg
   viewBox="4886.7402 3609.0271 16000.001 15999.993"
   width="16.000002in"
   height="15.999999in"
   preserveAspectRatio="none"
   version="1.1"
   id="svg7"
   xmlns="http://www.w3.org/2000/svg"
   xmlns:svg="http://www.w3.org/2000/svg">
  <defs
     id="defs1">
    <style
       type="text/css"
       id="style1">
   
    .str0 {stroke:#373435;stroke-width:3;stroke-miterlimit:2.61313}
    .fil1 {fill:#D2AE6D}
    .fil0 {fill:#201E1E}
   
  </style>
  </defs>
  <g
     id="g8"
     transform="translate(5278.1673,-4945.3163)">
    <rect
       style="font-variation-settings:'wght' 700;fill:#1c104c;fill-opacity:1;stroke-width:37.25"
       id="rect7"
       width="15999.997"
       height="15999.997"
       x="-391.42667"
       y="8554.3438" />
    <g
       id="object-0"
       transform="translate(-128.98214,-261.51169)">
      <path
         class="fil1"
         d="m 975.722,14687.731 c 3481.6103,2059.357 6396.8983,-3002.633 11451.845,-1689.569 -3039.1867,-3102.4197 -7969.9064,-2334.73 -9587.4682,1819.526 0,0 -861.7785,97.819 -1864.3768,-129.987 z m 2757.7271,-133.867 c 0,0 1599.8064,-3758.774 6218.4192,-2371.853 -2127.545,40.405 -3902.399,1469.64 -6218.4192,2371.853 z"
         id="path1"
         style="stroke-width:2.9841" />
      <path
         class="fil1"
         d="m 1148.3224,15169.872 c 3497.5454,3354.995 8555.9249,-2314.171 12827.3966,-14.503 -3605.689,-3820.425 -8429.7269,1852.411 -12827.3966,14.503 z"
         id="path2"
         style="stroke-width:2.9841" />
      <path
         class="fil1"
         d="m 11734.301,20882.635 c 0,0 696.251,48.879 952.764,-97.7 C 9143.9523,25091.172 1685.8485,21812.242 2534.7357,16040.394 l 708.7837,173.853 c -444.3625,4878.677 4948.3259,7411.403 8490.7816,4668.418 z"
         id="path3"
         style="stroke-width:2.9841" />
      <path
         class="fil1"
         d="m 5898.5039,16769.111 c 21.8436,63.741 34.1978,145.624 34.1978,252.724 v 2649.314 h 1782.0456 c 132.554,0 412.253,29.603 561.727,-495.957 42.285,-173.705 27.245,-613.621 -217.183,-169.348 0,0 -111.635,295.247 -450.957,340.635 h -1057.834 v -1195.998 h 1271.167 v -344.544 h -1271.167 c 5.282,-358.211 10.564,-654.95 15.816,-1013.162 183.492,-69.142 1435.084,-155.86 1333.356,409.926 0,555.49 907.286,-839.816 -446.303,-837.995 -675.779,0 -1352.006,3.939 -2027.6962,-0.03 -0.5073,119.483 -0.9847,123.452 -1.4622,242.936 188.0282,-2.119 337.6212,67.56 474.293,161.529 z"
         id="path4"
         style="stroke-width:2.9841" />
      <path
         class="fil1"
         d="m 9032.4363,16364.676 h 619.709 v 1.761 h 889.0527 c 322.969,-1.672 565.964,163.737 563.876,371.073 0,240.996 0,416.699 0,657.666 -121.185,-2.716 -242.399,-5.461 -363.613,-8.177 -39.301,-511.952 -55.325,-451.703 -381.01,-478.321 -236.251,-19.278 -472.0247,-23.366 -708.0077,0 l -0.328,0.06 v 885.353 h 992.6907 v 405.45 h -992.6907 v 1471.878 h -619.709 v -2644.78 c -78.004,-120.856 -202.799,-210.528 -452.986,-216.616 0,-147.892 0,-295.754 0,-443.616 h 452.986 v -1.761 z"
         id="path5"
         style="stroke-width:2.9841" />
      <path
         class="fil1"
         d="m 13627.624,17530.564 c 0,-226.224 0,-452.419 0,-678.674 -502.314,-742.802 -1683.899,-549.343 -1940.024,0 -113.157,212.647 -113.754,736.267 24.231,919.014 337.949,393.453 792.995,540.808 1207.665,784.997 519.652,352.423 -14.114,754.053 -589.509,611.443 -302.826,-78.87 -444.78,-360.539 -480.112,-773.718 -93.432,0 -186.864,0 -280.296,0 0,226.225 0,452.419 0,678.674 41.807,115.753 144.788,225.956 291.696,332.16 1180.092,794.398 2357.141,-353.228 1634.989,-1231.658 -451.107,-353.436 -1058.819,-621.737 -1251.652,-833.996 -119.334,-107.666 -124.944,-287.459 24.201,-383.815 216.377,-100.893 513.146,-109.427 769.719,0 320.91,147.355 333.474,367.999 326.431,575.603 87.554,-0.03 175.107,-0.03 262.69,-0.06 z"
         id="path6"
         style="stroke-width:2.9841" />
      <path
         class="fil1"
         d="m 3543.9289,16602.718 c 454.8963,3402.83 2522.4604,5281.739 6043.9384,4833.199 88.24,-11.34 118.499,140.7 15.129,167.348 -3437.744,1005.971 -6288.7835,-1936.084 -6158.2888,-4922.394 -4.0584,-97.46 83.5847,-140.491 99.2214,-78.153 z"
         id="path7"
         style="stroke-width:2.9841" />
    </g>
  </g>
</svg>
