<?xml version="1.0" encoding="utf-8"?>
<svg xmlns="http://www.w3.org/2000/svg" viewBox="4886.7402 3609.0271 4356.4199 3905.7585" width="4.35642in" height="3.90576in" preserveAspectRatio="none"><defs><style type="text/css">
   
    .str0 {stroke:#373435;stroke-width:3;stroke-miterlimit:2.61313}
    .fil1 {fill:#D2AE6D}
    .fil0 {fill:#201E1E}
   
  </style></defs><g id="object-0"><path class="fil1" d="M4886.74 4811.13c1166.72,690.11 2143.66,-1006.21 3837.62,-566.19 -1018.46,-1039.65 -2670.79,-782.39 -3212.85,609.74 0,0 -288.79,32.78 -624.77,-43.56zm924.14 -44.86c0,0 536.11,-1259.6 2083.85,-794.83 -712.96,13.54 -1307.73,492.49 -2083.85,794.83z" style="fill: rgb(28, 16, 76);"/><path class="fil1" d="M4944.58 4972.7c1172.06,1124.29 2867.17,-775.5 4298.58,-4.86 -1208.3,-1280.26 -2824.88,620.76 -4298.58,4.86z" style="fill: rgb(28, 16, 76);"/><path class="fil1" d="M8492.04 6887.1c0,0 233.32,16.38 319.28,-32.74 -1187.33,1443.06 -3686.61,344.26 -3402.14,-1589.94l237.52 58.26c-148.91,1634.89 1658.23,2483.63 2845.34,1564.43z" style="fill: rgb(28, 16, 76);"/><path class="fil1" d="M6536.41 5508.62c7.32,21.36 11.46,48.8 11.46,84.69l0 887.81 597.18 0c44.42,0 138.15,9.92 188.24,-166.2 14.17,-58.21 9.13,-205.63 -72.78,-56.75 0,0 -37.41,98.94 -151.12,114.15l-354.49 0 0 -400.79 425.98 0 0 -115.46 -425.98 0c1.77,-120.04 3.54,-219.48 5.3,-339.52 61.49,-23.17 480.91,-52.23 446.82,137.37 0,186.15 304.04,-281.43 -149.56,-280.82 -226.46,0 -453.07,1.32 -679.5,-0.01 -0.17,40.04 -0.33,41.37 -0.49,81.41 63.01,-0.71 113.14,22.64 158.94,54.13z" style="fill: rgb(28, 16, 76);"/><path class="fil1" d="M7586.62 5373.09l207.67 0 0 0.59 297.93 0c108.23,-0.56 189.66,54.87 188.96,124.35 0,80.76 0,139.64 0,220.39 -40.61,-0.91 -81.23,-1.83 -121.85,-2.74 -13.17,-171.56 -18.54,-151.37 -127.68,-160.29 -79.17,-6.46 -158.18,-7.83 -237.26,0l-0.11 0.02 0 296.69 332.66 0 0 135.87 -332.66 0 0 493.24 -207.67 0 0 -886.29c-26.14,-40.5 -67.96,-70.55 -151.8,-72.59 0,-49.56 0,-99.11 0,-148.66l151.8 0 0 -0.59z" style="fill: rgb(28, 16, 76);"/><path class="fil1" d="M9126.51 5763.79c0,-75.81 0,-151.61 0,-227.43 -168.33,-248.92 -564.29,-184.09 -650.12,0 -37.92,71.26 -38.12,246.73 8.12,307.97 113.25,131.85 265.74,181.23 404.7,263.06 174.14,118.1 -4.73,252.69 -197.55,204.9 -101.48,-26.43 -149.05,-120.82 -160.89,-259.28 -31.31,0 -62.62,0 -93.93,0 0,75.81 0,151.61 0,227.43 14.01,38.79 48.52,75.72 97.75,111.31 395.46,266.21 789.9,-118.37 547.9,-412.74 -151.17,-118.44 -354.82,-208.35 -419.44,-279.48 -39.99,-36.08 -41.87,-96.33 8.11,-128.62 72.51,-33.81 171.96,-36.67 257.94,0 107.54,49.38 111.75,123.32 109.39,192.89 29.34,-0.01 58.68,-0.01 88.03,-0.02z" style="fill: rgb(28, 16, 76);"/><path class="fil1" d="M5747.37 5452.86c152.44,1140.32 845.3,1769.96 2025.38,1619.65 29.57,-3.8 39.71,47.15 5.07,56.08 -1152.02,337.11 -2107.43,-648.8 -2063.7,-1649.54 -1.36,-32.66 28.01,-47.08 33.25,-26.19z" style="fill: rgb(28, 16, 76);"/></g></svg>