<?xml version="1.0" encoding="utf-8"?>
<svg xmlns="http://www.w3.org/2000/svg" width="15in" height="15in" version="1.1" style="shape-rendering:geometricPrecision; text-rendering:geometricPrecision; image-rendering:optimizeQuality; fill-rule:evenodd; clip-rule:evenodd" viewBox="0 0 15000 15000" xmlns:bx="https://boxy-svg.com">
  <defs>
    <style type="text/css">.str0 {stroke:#373435;stroke-width:3;stroke-miterlimit:2.61313}
    .fil1 {fill:#1c104c}
    .fil0 {fill:#1c104c}</style>
    <bx:export>
      <bx:file format="svg" href="#object-0" units="in" excluded="true"/>
      <bx:file format="svg" href="#object-1" path="Untitled 2.svg" units="in" excluded="true"/>
      <bx:file format="svg" href="#object-2" path="Untitled 3.svg" units="in" excluded="true"/>
      <bx:file format="svg" href="#object-3" path="Untitled 4.svg" units="in" excluded="true"/>
      <bx:file format="svg" href="#object-4" path="Untitled 5.svg" units="in" excluded="true"/>
      <bx:file format="svg" href="#object-5" path="Untitled 6.svg" units="in" excluded="true"/>
      <bx:file format="svg" href="#object-6" path="Untitled 7.svg" units="in" excluded="true"/>
      <bx:file format="svg" href="#object-7" path="Untitled 8.svg" units="in" excluded="true"/>
      <bx:file format="svg" href="#object-8" path="Untitled 9.svg" units="in" excluded="true"/>
      <bx:file format="svg" href="#object-9" path="Untitled 10.svg" units="in" excluded="true"/>
      <bx:file format="svg" href="#object-10" path="Untitled 11.svg" units="in" excluded="true"/>
      <bx:file format="svg" href="#object-11" path="Untitled 12.svg" units="in" excluded="true"/>
      <bx:file format="svg" href="#object-12" path="Untitled 13.svg" units="in" excluded="true"/>
      <bx:file format="svg" href="#object-13" path="Untitled 14.svg" units="in" excluded="true"/>
      <bx:file format="svg" href="#object-14" path="Untitled 15.svg" units="in" excluded="true"/>
      <bx:file format="svg" href="#object-15" path="Untitled 16.svg" units="in" excluded="true"/>
      <bx:file format="svg" href="#object-16" path="Untitled 17.svg" units="in" excluded="true"/>
      <bx:file format="svg" href="#object-17" path="Untitled 18.svg" units="in" excluded="true"/>
      <bx:file format="svg" href="#object-18" path="Untitled 19.svg" units="in" excluded="true"/>
      <bx:file format="svg" href="#object-19" path="Untitled 20.svg" units="in" excluded="true"/>
      <bx:file format="svg" href="#object-20" path="Untitled 21.svg" units="in" excluded="true"/>
      <bx:file format="svg" href="#object-21" path="Untitled 22.svg" units="in" excluded="true"/>
      <bx:file format="svg" href="#object-22" path="Untitled 23.svg" units="in" excluded="true"/>
      <bx:file format="svg" href="#object-23" path="Untitled 24.svg" units="in" excluded="true"/>
      <bx:file format="svg" href="#object-24" path="Untitled 25.svg" units="in" excluded="true"/>
      <bx:file format="svg" href="#object-25" path="Untitled 26.svg" units="in" excluded="true"/>
      <bx:file format="svg" href="#object-26" path="Untitled 27.svg" units="in" excluded="true"/>
      <bx:file format="svg" path="Untitled 28.svg" units="in"/>
    </bx:export>
  </defs>
  <g id="_1820419892128" transform="matrix(1, 0, 0, 1, -87.053322, 123.993484)">
    <g id="object-26" transform="matrix(1, 0, 0, 1, 222.79303, -8.211288)">
      <path class="fil1" d="M2547.97 8770.56c8.81,25.7 13.79,58.69 13.79,101.87l0 1067.93 718.33 0c53.43,0 166.18,11.93 226.43,-199.92 17.04,-70.02 10.98,-247.34 -87.55,-68.26 0,0 -45,119.01 -181.78,137.31l-426.4 0 0 -482.1 512.4 0 0 -138.89 -512.4 0c2.12,-144.39 4.26,-264.01 6.38,-408.4 73.96,-27.87 578.47,-62.83 537.47,165.24 0,223.91 365.72,-338.52 -179.9,-337.79 -272.41,0 -544.98,1.59 -817.36,-0.02 -0.2,48.16 -0.39,49.76 -0.59,97.93 75.79,-0.86 136.09,27.23 191.18,65.11z" id="object-0"/>
      <path class="fil1" d="M7317.02 9833.51l556.06 -1135.94c0,0 87.12,-161.8 165.94,0l369.24 921.01c13.77,51.85 99.72,224.07 185.7,238.16l45.16 0 0 37.57 0 54.89 0 28.23c-277.81,0 -364.44,-36.17 -504.68,-350.56l-551.03 -7.96 -167.7 322.91 -150.64 0c17.21,-36.93 34.18,-72.03 51.94,-108.31zm340.32 -370.33l212.89 -458.61 189.54 462.76 -402.43 -4.15z" id="object-1"/>
      <path class="fil1" d="M3534.1 8744.59c10.81,-46.25 21.62,-92.49 32.43,-138.74 108.11,0.6 216.21,1.2 324.32,1.8 90.33,-1.24 115.68,115.23 115.31,250.45 0,315.79 0,635.43 0,951.22 217.72,-2.38 435.46,1.72 653.18,-0.66 0,47.66 0,84.98 0,132.65 -315.34,0 -630.67,0 -946.01,0 0,-350.53 0,-701.07 0,-1051.59 -0.56,-107.57 -66.96,-149.27 -179.23,-145.12z" id="object-2"/>
      <path class="fil1" d="M4804.47 8770.56c8.8,25.7 13.79,58.69 13.79,101.87l0 1067.93 718.33 0c53.43,0 166.17,11.93 226.43,-199.92 17.05,-70.02 10.98,-247.34 -87.55,-68.26 0,0 -45,119.01 -181.78,137.31l-426.4 0 0 -482.1 512.4 0 0 -138.89 -512.4 0c2.13,-144.39 4.26,-264.01 6.38,-408.4 73.96,-27.87 578.47,-62.83 537.47,165.24 0,223.91 365.72,-338.52 -179.91,-337.79 -272.41,0 -544.98,1.59 -817.35,-0.02 -0.2,48.16 -0.4,49.76 -0.59,97.93 75.79,-0.86 136.1,27.23 191.19,65.11z" id="object-3"/>
      <path class="fil1" d="M7269.79 9214.92c0,36.08 0,72.17 0,108.25 -85.16,0 -125.17,57.68 -125.17,138.69 0,133.74 0,267.48 0,401.22 -267.95,176.99 -579.2,180.08 -849.83,80.52 -536.99,-211.33 -532.64,-1181.95 58.28,-1337.83 141.96,-32.99 282.69,-38.48 425.87,0 245.54,69.05 342.03,218.21 339.57,412.75 -41.28,0 -82.55,0 -123.82,0 -44.92,-204.63 -196.15,-300.61 -424.7,-288.67 -483.68,20.57 -525.78,883.38 -100.04,1107.85 116.36,54.37 264,47.5 392.92,0 4.11,-149.49 8.23,-269.2 12.34,-418.69 0,-113.58 229.2,-219.01 394.57,-204.1z" id="object-4"/>
      <path class="fil1" d="M8589.12 8608.62c0,40.41 0,80.81 0,121.22 119.32,-0.77 195.34,37.98 195.09,143.95 0,355.64 0,711.28 0,1066.92 40.12,0 80.24,0 120.36,0 0,-303.64 0,-607.28 0,-910.91 273.91,302.85 547.8,605.7 821.7,908.56 40.69,0 81.39,0 122.08,0 0,-443 0,-885.99 0,-1328.98 -32.64,0 -65.29,0 -97.93,0 0,288.57 0,577.15 0,865.72 -244.58,-260.08 -489.15,-520.17 -733.73,-780.25 -80.37,-82.85 -183.48,-87.89 -427.58,-86.22z" id="object-5"/>
      <path class="fil1" d="M11677.27 8770.56c8.8,25.7 13.79,58.69 13.79,101.87l0 1067.93 718.33 0c53.43,0 166.17,11.93 226.43,-199.92 17.05,-70.02 10.98,-247.34 -87.55,-68.26 0,0 -45,119.01 -181.78,137.31l-426.4 0 0 -482.1 512.4 0 0 -138.89 -512.4 0c2.13,-144.39 4.26,-264.01 6.38,-408.4 73.96,-27.87 578.47,-62.83 537.47,165.24 0,223.91 365.72,-338.52 -179.9,-337.79 -272.41,0 -544.98,1.59 -817.35,-0.02 -0.2,48.16 -0.4,49.76 -0.59,97.93 75.79,-0.86 136.1,27.23 191.19,65.11z" id="object-6"/>
      <path class="fil1" d="M11354.17 9095.5c0,-81.45 0,-162.9 0,-244.35 -106.3,-258.71 -429.25,-337.19 -798.9,-241.75 -531.61,210.25 -659.43,1002.34 -139.74,1312.74 216.03,123.42 530.16,115.96 735.62,0 95.93,-61.21 161.34,-142.48 226.75,-228.76 -34.28,-38.13 -68.55,-76.25 -102.83,-114.38 -178.57,262.21 -439.43,329.09 -669.71,210.56 -280.22,-151.99 -296.54,-867.63 21.09,-1013.8 272.72,-132.48 600.6,7.41 618.41,319.57 35,0.02 74.83,-0.12 109.3,0.17z" id="object-7"/>
      <path class="fil1" d="M3773.82 10531.34l146.49 0 0 0.41 210.17 0c76.35,-0.39 133.79,38.71 133.3,87.72 0,56.97 0,98.5 0,155.47 -28.65,-0.65 -57.3,-1.29 -85.95,-1.93 -9.29,-121.02 -13.07,-106.78 -90.07,-113.07 -55.85,-4.56 -111.58,-5.52 -167.36,0l-0.08 0.02 0 209.29 234.67 0 0 95.85 -234.67 0 0 347.94 -146.49 0 0 -625.2c-18.44,-28.57 -47.94,-49.77 -107.08,-51.2 0,-34.96 0,-69.91 0,-104.87l107.08 0 0 -0.41z" id="object-8"/>
      <path class="fil1" d="M4961 10531.91l52.65 0 -0.03 -1.41 92.83 0.88 273.21 509.65 204.91 -509.65 67.43 0 -0.06 0.54 103.18 0c4.09,216.96 8.19,397.37 12.29,614.33 -0.13,67.65 21.2,93.08 81.65,93.08l0 59.07 0 14.16c-45.3,23.06 -144.59,27.43 -193.68,0.05 -41.88,-30.29 -67.01,-79.2 -70.43,-152.21l0 -322.83 -200.78 473.41 -66.91 0 -262.44 -445.53 0 447.17 -93.81 0 0 -780.69z" id="object-9"/>
      <path class="fil1" d="M5913.23 10532.62c57.72,0 115.44,0 173.16,0 0,217.13 0,434.27 0,651.4 -1.08,40.98 53.52,43.07 84.09,42.91 0,28.69 0,57.38 0,86.07 -148.43,28.47 -258.71,35.41 -257.26,-133.76 1.84,-215.54 0,-431.07 0,-646.61z" id="object-10"/>
      <path class="fil1" d="M6179.93 10612.63c6.32,-27.05 12.65,-54.11 18.97,-81.16 63.25,0.35 126.49,0.7 189.74,1.05 52.85,-0.72 67.67,67.42 67.46,146.52 0,184.75 0,371.74 0,556.48 127.37,-1.39 210.97,1.01 338.34,-0.38 0,27.88 0,49.72 0,77.6 -184.48,0 -325.18,0 -509.65,0 0,-205.07 0,-410.14 0,-615.2 -0.33,-62.93 -39.18,-87.33 -104.86,-84.9z" id="object-11"/>
      <path class="fil1" d="M7309.84 10533.67c35.78,0 71.57,0 107.35,0 -89.17,147.1 -178.34,294.2 -267.51,441.3 0,112.26 0,224.51 0,336.77 -62.13,0 -124.26,0 -186.39,0 0,-101.12 0,-202.23 0,-303.35 -73.07,-113.24 -146.13,-226.48 -219.2,-339.72 -18.18,-32.57 -51.72,-52.64 -110.02,-52.53 0,-28.08 0,-56.17 0,-84.25 48.57,0 97.13,0 145.7,0 54.98,-0.21 95.94,47.71 129.85,93.17 58.48,84.91 116.96,169.82 175.44,254.74 74.92,-115.38 149.85,-230.75 224.77,-346.12z" id="object-12"/>
      <path class="fil1" d="M8241.99 10832.48c0,-57.93 0,-115.85 0,-173.78 -128.63,-190.2 -431.2,-140.67 -496.78,0 -28.98,54.46 -29.13,188.53 6.2,235.33 86.54,100.75 203.06,138.48 309.24,201.01 133.07,90.25 -3.61,193.09 -150.95,156.57 -77.54,-20.19 -113.89,-92.32 -122.94,-198.13 -23.93,0 -47.85,0 -71.78,0 0,57.93 0,115.85 0,173.78 10.7,29.64 37.08,57.86 74.69,85.06 302.19,203.42 603.59,-90.45 418.67,-315.39 -115.51,-90.51 -271.13,-159.21 -320.51,-213.56 -30.56,-27.57 -31.99,-73.61 6.2,-98.28 55.41,-25.83 131.4,-28.02 197.1,0 82.18,37.74 85.39,94.24 83.59,147.4 22.43,-0.01 44.84,-0.01 67.27,-0.01z" id="object-13"/>
      <path class="fil1" d="M8500.76 11026.6l100.59 -224.11 89.54 226.14 -190.13 -2.03zm-194.17 218.13l317.27 -670.38c0,0 49.7,-95.49 94.68,0l210.67 543.54c7.86,30.6 56.9,132.23 105.96,140.55l25.77 0 0 22.17 0 32.4 0 16.66c-158.51,0 -207.94,-21.35 -287.95,-206.89l-314.4 -4.7 -95.69 190.57 -85.95 0c9.82,-21.8 19.5,-42.51 29.64,-63.93z" id="object-14"/>
      <path class="fil1" d="M4374.39 11026.6l100.58 -224.11 89.55 226.14 -190.13 -2.03zm-194.18 218.13l317.27 -670.38c0,0 49.7,-95.49 94.68,0l210.67 543.54c7.86,30.6 56.89,132.23 105.96,140.55l25.76 0 0 22.17 0 32.4 0 16.66c-158.51,0 -207.94,-21.35 -287.95,-206.89l-314.4 -4.7 -95.69 190.57 -85.95 0c9.82,-21.8 19.5,-42.51 29.64,-63.93z" id="object-15"/>
      <path class="fil1" d="M9014.01 10612.63c6.32,-27.05 12.65,-54.11 18.97,-81.16 63.25,0.35 126.5,0.7 189.74,1.05 52.85,-0.72 67.67,67.42 67.46,146.52 0,184.75 0,371.74 0,556.48 127.37,-1.39 210.97,1.01 338.35,-0.38 0,27.88 0,49.72 0,77.6 -184.48,0 -325.18,0 -509.66,0 0,-205.07 0,-410.14 0,-615.2 -0.33,-62.93 -39.18,-87.33 -104.86,-84.9z" id="object-16"/>
      <path class="fil1" d="M10441.2 10533.61c0,23.57 0,47.14 0,70.71 69.6,-0.45 113.94,22.16 113.8,83.97 0,207.46 0,414.91 0,622.36 23.41,0 46.81,0 70.21,0 0,-177.12 0,-354.24 0,-531.36 159.77,176.67 319.54,353.33 479.32,529.99 23.74,0 47.47,0 71.21,0 0,-258.41 0,-516.82 0,-775.23 -19.04,0 -38.08,0 -57.12,0 0,168.33 0,336.67 0,505 -142.67,-151.71 -285.34,-303.43 -428,-455.14 -46.88,-48.33 -107.03,-51.27 -249.42,-50.3z" id="object-17"/>
      <path class="fil1" d="M10053.65 10671.84c111.74,0 202.32,129.92 202.32,290.19 0,160.26 -90.58,290.18 -202.32,290.18 -111.74,0 -202.32,-129.92 -202.32,-290.18 0,-160.27 90.58,-290.19 202.32,-290.19zm0 -138.76c214.44,0 388.29,192.05 388.29,428.96 0,236.89 -173.85,428.94 -388.29,428.94 -214.45,0 -388.29,-192.05 -388.29,-428.94 0,-236.91 173.84,-428.96 388.29,-428.96z" id="object-18"/>
      <path class="fil1" d="M4886.74 4811.13c1166.72,690.11 2143.66,-1006.21 3837.62,-566.19 -1018.46,-1039.65 -2670.79,-782.39 -3212.85,609.74 0,0 -288.79,32.78 -624.77,-43.56zm924.14 -44.86c0,0 536.11,-1259.6 2083.85,-794.83 -712.96,13.54 -1307.73,492.49 -2083.85,794.83z" id="object-19"/>
      <path class="fil1" d="M4944.58 4972.7c1172.06,1124.29 2867.17,-775.5 4298.58,-4.86 -1208.3,-1280.26 -2824.88,620.76 -4298.58,4.86z" id="object-20"/>
      <path class="fil1" d="M8492.04 6887.1c0,0 233.32,16.38 319.28,-32.74 -1187.33,1443.06 -3686.61,344.26 -3402.14,-1589.94l237.52 58.26c-148.91,1634.89 1658.23,2483.63 2845.34,1564.43z" id="object-21"/>
      <path class="fil1" d="M6536.41 5508.62c7.32,21.36 11.46,48.8 11.46,84.69l0 887.81 597.18 0c44.42,0 138.15,9.92 188.24,-166.2 14.17,-58.21 9.13,-205.63 -72.78,-56.75 0,0 -37.41,98.94 -151.12,114.15l-354.49 0 0 -400.79 425.98 0 0 -115.46 -425.98 0c1.77,-120.04 3.54,-219.48 5.3,-339.52 61.49,-23.17 480.91,-52.23 446.82,137.37 0,186.15 304.04,-281.43 -149.56,-280.82 -226.46,0 -453.07,1.32 -679.5,-0.01 -0.17,40.04 -0.33,41.37 -0.49,81.41 63.01,-0.71 113.14,22.64 158.94,54.13z" id="object-22"/>
      <path class="fil1" d="M7586.62 5373.09l207.67 0 0 0.59 297.93 0c108.23,-0.56 189.66,54.87 188.96,124.35 0,80.76 0,139.64 0,220.39 -40.61,-0.91 -81.23,-1.83 -121.85,-2.74 -13.17,-171.56 -18.54,-151.37 -127.68,-160.29 -79.17,-6.46 -158.18,-7.83 -237.26,0l-0.11 0.02 0 296.69 332.66 0 0 135.87 -332.66 0 0 493.24 -207.67 0 0 -886.29c-26.14,-40.5 -67.96,-70.55 -151.8,-72.59 0,-49.56 0,-99.11 0,-148.66l151.8 0 0 -0.59z" id="object-23"/>
      <path class="fil1" d="M9126.51 5763.79c0,-75.81 0,-151.61 0,-227.43 -168.33,-248.92 -564.29,-184.09 -650.12,0 -37.92,71.26 -38.12,246.73 8.12,307.97 113.25,131.85 265.74,181.23 404.7,263.06 174.14,118.1 -4.73,252.69 -197.55,204.9 -101.48,-26.43 -149.05,-120.82 -160.89,-259.28 -31.31,0 -62.62,0 -93.93,0 0,75.81 0,151.61 0,227.43 14.01,38.79 48.52,75.72 97.75,111.31 395.46,266.21 789.9,-118.37 547.9,-412.74 -151.17,-118.44 -354.82,-208.35 -419.44,-279.48 -39.99,-36.08 -41.87,-96.33 8.11,-128.62 72.51,-33.81 171.96,-36.67 257.94,0 107.54,49.38 111.75,123.32 109.39,192.89 29.34,-0.01 58.68,-0.01 88.03,-0.02z" id="object-24"/>
      <path class="fil1" d="M5747.37 5452.86c152.44,1140.32 845.3,1769.96 2025.38,1619.65 29.57,-3.8 39.71,47.15 5.07,56.08 -1152.02,337.11 -2107.43,-648.8 -2063.7,-1649.54 -1.36,-32.66 28.01,-47.08 33.25,-26.19z" id="object-25"/>
    </g>
  </g>
</svg>